<?xml version="1.0" encoding="UTF-8"?>
<svg width="430px" height="418px" viewBox="0 0 430 418" version="1.1" xmlns="http://www.w3.org/2000/svg" xmlns:xlink="http://www.w3.org/1999/xlink">
    <!-- Generator: Sketch 53.2 (72643) - https://sketchapp.com -->
    <title>Group</title>
    <desc>Created with Sketch.</desc>
    <g id="Page-1" stroke="none" stroke-width="1" fill="none" fill-rule="evenodd">
        <g id="Desktop-HD-Copy" transform="translate(-274.000000, -303.000000)">
            <g id="Group-2" transform="translate(273.000000, 303.000000)">
                <g id="Group">
                    <polygon id="Rectangle" fill="#FF3838" points="206.203866 0 429 5.45084511 215 418 1 418"></polygon>
                    <g id="Group-17" transform="translate(40.000000, 49.000000)" stroke="#231F20" stroke-linecap="round" stroke-linejoin="round" stroke-width="3">
                        <polyline id="Stroke-1" points="206.188525 276.026471 50.8544523 161.328727 0 140.417647"></polyline>
                        <path d="M51.7868852,161.576471 L227.286885,84.6352941" id="Stroke-3"></path>
                        <g id="Group-16">
                            <polyline id="Stroke-4" points="66.194378 310.842954 0.376008224 140.217603 99.8349617 0.347784615 285.068487 16.1272612"></polyline>
                            <polyline id="Stroke-6" points="285.068637 16.1273367 350.887007 186.752688 251.428054 326.622506 66.1945285 310.843029"></polyline>
                            <polyline id="Stroke-8" points="350.886781 186.752461 206.33092 276.426238 66.1943027 310.842803"></polyline>
                            <polyline id="Stroke-10" points="99.8351874 0.347860053 227.12191 84.5289576 350.887082 186.752688"></polyline>
                            <polyline id="Stroke-12" points="66.194378 310.842954 51.1728607 161.221197 99.8349617 0.347784615"></polyline>
                            <polyline id="Stroke-14" points="251.427828 326.622807 206.33092 276.426012 227.121609 84.528505 285.068412 16.1276384"></polyline>
                        </g>
                    </g>
                    <path d="M12.076,119.1 L71.044,119.1 L71.044,133.842 L49.282,133.842 L35.008,201 L19.564,201 L33.838,133.842 L12.076,133.842 L12.076,119.1 Z M145.222,119.1 L133.873,172.686 C132.780995,177.990027 131.318509,182.513981 129.4855,186.258 C127.652491,190.002019 125.371014,193.102488 122.641,195.5595 C119.910986,198.016512 116.732518,199.810494 113.1055,200.9415 C109.478482,202.072506 105.286024,202.638 100.528,202.638 C97.0179825,202.638 93.7420152,202.111505 90.7,201.0585 C87.6579848,200.005495 85.0450109,198.48451 82.861,196.4955 C80.6769891,194.50649 78.9610062,192.049515 77.713,189.1245 C76.4649938,186.199485 75.841,182.865019 75.841,179.121 C75.841,177.872994 75.8799996,176.644506 75.958,175.4355 C76.0360004,174.226494 76.2699981,172.842008 76.66,171.282 L87.658,119.1 L103.102,119.1 L91.753,172.686 C91.5969992,173.544004 91.4605006,174.362996 91.3435,175.143 C91.2264994,175.923004 91.168,176.702996 91.168,177.483 C91.168,180.837017 92.0844908,183.449991 93.9175,185.322 C95.7505092,187.194009 98.4999817,188.13 102.166,188.13 C106.846023,188.13 110.453487,186.882012 112.9885,184.386 C115.523513,181.889988 117.336995,177.990027 118.429,172.686 L129.778,119.1 L145.222,119.1 Z M183.364,193.278 L185.47,193.278 L201.265,119.1 L216.007,119.1 L198.574,201 L169.792,201 L175.291,126.822 L173.185,126.822 L157.39,201 L142.765,201 L160.081,119.1 L188.863,119.1 L183.364,193.278 Z M227.239,119.1 L258.244,119.1 C266.20004,119.1 272.361978,121.10848 276.73,125.1255 C281.098022,129.14252 283.282,134.465967 283.282,141.096 C283.282,142.188005 283.204001,143.318994 283.048,144.489 C282.891999,145.659006 282.697001,146.867994 282.463,148.116 L277.315,172.686 C276.222995,177.678025 274.741009,181.948482 272.869,185.4975 C270.996991,189.046518 268.598515,191.971488 265.6735,194.2725 C262.748485,196.573512 259.27752,198.269995 255.2605,199.362 C251.24348,200.454005 246.583027,201 241.279,201 L215.422,201 L215.422,186.258 L223.846,186.258 L234.961,133.842 L227.239,133.842 L227.239,119.1 Z M244.438,186.258 C249.820027,186.258 253.856487,184.990513 256.5475,182.4555 C259.238513,179.920487 261.129995,175.962027 262.222,170.58 L267.019,148.116 C267.175001,147.491997 267.311499,146.770504 267.4285,145.9515 C267.545501,145.132496 267.604,144.372004 267.604,143.67 C267.604,140.471984 266.62901,138.034508 264.679,136.3575 C262.72899,134.680492 259.687021,133.842 255.553,133.842 L250.405,133.842 L239.29,186.258 L244.438,186.258 Z M341.08,201 L325.402,201 L330.667,176.43 C330.823001,175.649996 330.901,175.026002 330.901,174.558 C330.901,173.231993 330.472004,172.159504 329.614,171.3405 C328.755996,170.521496 327.430009,170.112 325.636,170.112 L308.671,170.112 L302.119,201 L286.792,201 L304.108,119.1 L332.89,119.1 C336.712019,119.1 340.085485,119.626495 343.0105,120.6795 C345.935515,121.732505 348.39249,123.136491 350.3815,124.8915 C352.37051,126.646509 353.852495,128.732988 354.8275,131.151 C355.802505,133.569012 356.29,136.103987 356.29,138.756 C356.29,144.450028 354.983513,149.071482 352.3705,152.6205 C349.757487,156.169518 345.760027,158.840991 340.378,160.635 L340.378,162.741 C342.640011,162.975001 344.375494,163.774493 345.5845,165.1395 C346.793506,166.504507 347.398,168.239989 347.398,170.346 C347.398,171.126004 347.320001,171.905996 347.164,172.686 L341.08,201 Z M311.83,155.37 L325.87,155.37 C330.004021,155.37 333.396987,154.278011 336.049,152.094 C338.701013,149.909989 340.027,146.946019 340.027,143.202 C340.027,140.237985 339.227508,137.937008 337.6285,136.299 C336.029492,134.660992 333.592016,133.842 330.316,133.842 L316.393,133.842 L311.83,155.37 Z M403.792,183.45 L376.765,183.45 L369.277,201 L352.78,201 L388.816,119.1 L417.364,119.1 L419.353,201 L404.026,201 L403.792,183.45 Z M382.966,168.708 L403.558,168.708 L402.973,126.822 L400.867,126.822 L382.966,168.708 Z M155.635,227.1 L186.64,227.1 C194.59604,227.1 200.757978,229.10848 205.126,233.1255 C209.494022,237.14252 211.678,242.465967 211.678,249.096 C211.678,250.188005 211.600001,251.318994 211.444,252.489 C211.287999,253.659006 211.093001,254.867994 210.859,256.116 L205.711,280.686 C204.618995,285.678025 203.137009,289.948482 201.265,293.4975 C199.392991,297.046518 196.994515,299.971488 194.0695,302.2725 C191.144485,304.573512 187.67352,306.269995 183.6565,307.362 C179.63948,308.454005 174.979027,309 169.675,309 L143.818,309 L143.818,294.258 L152.242,294.258 L163.357,241.842 L155.635,241.842 L155.635,227.1 Z M172.834,294.258 C178.216027,294.258 182.252487,292.990513 184.9435,290.4555 C187.634513,287.920487 189.525995,283.962027 190.618,278.58 L195.415,256.116 C195.571001,255.491997 195.707499,254.770504 195.8245,253.9515 C195.941501,253.132496 196,252.372004 196,251.67 C196,248.471984 195.02501,246.034508 193.075,244.3575 C191.12499,242.680492 188.083021,241.842 183.949,241.842 L178.801,241.842 L167.686,294.258 L172.834,294.258 Z M260.584,291.45 L233.557,291.45 L226.069,309 L209.572,309 L245.608,227.1 L274.156,227.1 L276.145,309 L260.818,309 L260.584,291.45 Z M239.758,276.708 L260.35,276.708 L259.765,234.822 L257.659,234.822 L239.758,276.708 Z M345.877,309 L320.254,309 L328.093,249.564 L330.667,235.524 L327.859,235.524 L325.519,248.16 L309.724,309 L284.452,309 L295.567,227.1 L309.607,227.1 L300.13,286.536 L297.439,299.874 L300.247,299.874 L302.704,287.94 L318.616,227.1 L343.186,227.1 L335.23,287.94 L332.773,299.874 L335.581,299.874 L338.272,286.536 L352.078,227.1 L366.118,227.1 L345.877,309 Z M398.176,301.278 L400.282,301.278 L416.077,227.1 L430.819,227.1 L413.386,309 L384.604,309 L390.103,234.822 L387.997,234.822 L372.202,309 L357.577,309 L374.893,227.1 L403.675,227.1 L398.176,301.278 Z" id="TUNDRADAWN" fill="#000000" fill-rule="nonzero"></path>
                </g>
            </g>
        </g>
    </g>
</svg>