<?xml version="1.0" encoding="UTF-8"?>
<svg width="667px" height="444px" viewBox="0 0 667 444" version="1.1" xmlns="http://www.w3.org/2000/svg" xmlns:xlink="http://www.w3.org/1999/xlink">
    <!-- Generator: Sketch 53.2 (72643) - https://sketchapp.com -->
    <title>Shape</title>
    <desc>Created with Sketch.</desc>
    <g id="Page-1" stroke="none" stroke-width="1" fill="none" fill-rule="evenodd">
        <g id="tidal" fill="#FFFFFF" fill-rule="nonzero">
            <path d="M110.841019,0 L112.217481,0 C122.716449,12.0440468 134.584997,22.7116311 145.768754,34.2395045 L221.818307,110.289057 L221.818307,111.66552 C185.001376,148.313833 148.349621,185.306263 111.52925,221.954577 C74.5368204,185.134205 37.7164487,148.141776 0.72401927,111.321404 C2.62009635,107.70819 6.22986924,105.299381 8.98279422,102.374398 C42.8781831,68.1348933 77.2897454,34.4115623 110.841019,0 Z M332.795595,0 L334.172058,0 C335.207846,1.5485203 336.236752,2.92498279 337.613214,4.30144529 C373.229181,39.5732966 408.332416,75.3613214 444.289057,110.461115 C443.428768,112.525809 441.536132,113.902271 439.987612,115.450791 C404.375086,150.894701 368.927736,186.510668 333.311769,221.954577 C296.147281,185.306263 259.671025,147.969718 222.33448,111.493462 C258.466621,73.8128011 296.491397,37.5086029 332.795595,0 Z M554.750172,0 L556.126635,0 C563.008947,8.25877495 571.095664,15.3131452 578.49415,23.0557467 C606.367515,50.9291122 634.072264,78.6304198 661.942189,106.503785 C663.322092,108.052306 665.558844,109.428768 666.071576,111.66552 C628.735031,147.969718 592.602891,185.650379 555.094288,221.954577 L449.278734,116.139023 C447.558156,114.246387 445.321404,112.869924 444.461115,110.461115 C463.215416,92.2229869 481.453544,73.4686855 500.035788,55.0584997 C518.273916,36.6483138 536.85616,18.7543014 554.750172,0 Z M223.883001,331.211287 C260.187199,294.907089 296.663455,258.602891 332.967653,222.126635 L334.512732,222.814866 C370.988988,259.46318 407.465244,296.111493 444.285616,332.415692 C443.084652,335.168617 440.503785,336.717137 438.607708,338.953889 C412.114246,365.278734 385.613902,391.947694 359.116999,418.27254 C350.514109,426.531315 342.255334,435.822436 333.483827,443.565038 C320.923606,432.209222 309.395733,419.476944 297.176187,407.777013 C272.403304,383.000688 247.799036,358.224363 222.850654,333.620096 C223.194769,332.931865 223.538885,331.899518 223.883001,331.211287 Z" id="Shape"></path>
        </g>
    </g>
</svg>