<?xml version="1.0" standalone="no"?>
<!DOCTYPE svg PUBLIC "-//W3C//DTD SVG 20010904//EN"
 "http://www.w3.org/TR/2001/REC-SVG-20010904/DTD/svg10.dtd">
<svg version="1.0" xmlns="http://www.w3.org/2000/svg"
 width="700.000000pt" height="700.000000pt" viewBox="0 0 700.000000 700.000000"
 preserveAspectRatio="xMidYMid meet">
<metadata>
Created by potrace 1.11, written by Peter Selinger 2001-2013
</metadata>
<g transform="translate(0.000000,700.000000) scale(0.100000,-0.100000)"
fill="#000000" stroke="none">
<path d="M2014 6711 c-44 -20 -72 -54 -233 -286 -46 -66 -99 -140 -117 -165
-39 -53 -658 -922 -1041 -1463 -147 -208 -273 -384 -279 -390 -6 -7 -19 -25
-30 -42 -10 -16 -22 -34 -27 -40 -51 -65 -232 -327 -239 -347 -13 -36 -6 -84
20 -134 18 -35 183 -459 517 -1329 208 -542 386 -1002 394 -1020 5 -11 46
-117 91 -235 45 -118 97 -254 116 -302 19 -49 34 -91 34 -95 0 -5 6 -19 13
-33 7 -14 26 -60 42 -103 31 -80 70 -132 115 -149 27 -10 56 -14 165 -23 39
-3 99 -8 135 -10 36 -3 84 -8 107 -10 23 -3 75 -8 115 -10 40 -3 89 -7 108
-10 19 -2 73 -7 120 -10 47 -4 101 -8 120 -10 19 -2 73 -6 120 -10 47 -3 101
-8 120 -10 19 -2 71 -6 115 -10 44 -3 96 -8 115 -10 19 -2 71 -7 115 -10 44
-3 98 -8 120 -10 22 -2 72 -7 110 -10 121 -9 198 -15 250 -20 28 -3 82 -7 120
-10 39 -3 88 -8 110 -10 22 -2 78 -7 125 -10 47 -3 99 -8 115 -10 17 -2 64 -7
105 -10 41 -3 95 -8 120 -10 25 -2 81 -6 125 -10 44 -3 94 -8 110 -10 17 -2
70 -7 119 -10 49 -4 96 -8 105 -10 9 -2 66 -6 126 -10 61 -4 119 -9 130 -11
11 -2 66 -7 123 -10 162 -11 140 -30 425 370 352 495 525 738 539 759 7 11 51
72 98 137 47 65 91 127 98 137 37 54 157 223 526 741 456 641 439 611 398 722
-34 93 -173 454 -183 475 -8 19 -178 457 -224 580 -45 122 -246 641 -255 660
-5 11 -67 173 -139 360 -295 773 -432 1120 -453 1151 -37 54 -68 62 -293 79
-38 3 -90 7 -115 10 -25 3 -76 7 -115 10 -70 6 -121 10 -225 20 -106 9 -166
14 -245 20 -44 4 -96 8 -115 10 -19 2 -66 6 -105 10 -38 3 -90 8 -115 10 -25
2 -81 7 -125 11 -44 3 -96 7 -115 9 -19 2 -75 6 -125 10 -49 3 -101 8 -115 10
-14 3 -61 7 -105 10 -91 7 -146 11 -225 19 -30 3 -85 8 -122 11 -183 14 -204
16 -343 29 -27 3 -88 8 -135 11 -47 4 -101 8 -120 10 -19 2 -73 6 -120 10 -47
3 -101 8 -120 10 -39 4 -136 12 -237 21 -38 3 -86 7 -108 9 -180 16 -189 16
-231 -4z m806 -366 c47 -3 101 -8 120 -10 19 -2 71 -7 115 -10 44 -4 96 -8
115 -10 19 -2 73 -6 120 -10 47 -3 101 -8 120 -10 19 -2 73 -6 120 -10 47 -3
101 -8 120 -10 19 -2 71 -6 115 -10 44 -3 96 -8 115 -10 19 -2 73 -7 120 -10
47 -4 99 -8 115 -10 17 -2 75 -6 130 -10 55 -4 109 -9 119 -11 11 -2 58 -6
105 -9 47 -4 102 -8 121 -10 19 -2 73 -6 120 -10 47 -3 99 -8 115 -10 17 -2
66 -7 110 -10 133 -9 299 -25 301 -28 1 -2 -54 -67 -326 -388 -25 -29 -74 -87
-110 -129 -36 -42 -85 -100 -110 -130 -25 -29 -50 -58 -55 -64 -6 -6 -46 -54
-89 -106 -44 -52 -85 -101 -91 -108 -10 -11 -23 -7 -71 25 -33 21 -60 41 -62
46 -2 4 -7 7 -12 7 -4 0 -116 72 -248 159 -132 88 -331 220 -443 294 -112 73
-359 236 -549 362 -189 125 -351 230 -358 233 -11 4 -11 6 -1 13 7 4 16 6 19
4 3 -2 43 -6 90 -10z m-377 -208 c144 -95 469 -310 722 -478 253 -167 563
-372 690 -456 126 -83 235 -156 240 -161 6 -4 19 -13 30 -19 19 -11 19 -12 -5
-21 -34 -13 -172 -74 -240 -105 -30 -13 -77 -35 -105 -46 -27 -12 -59 -26 -70
-31 -47 -21 -128 -56 -240 -105 -162 -71 -990 -433 -1040 -455 -22 -10 -247
-109 -500 -220 -253 -111 -472 -207 -486 -214 l-27 -13 19 63 c10 35 28 92 38
127 45 146 85 278 111 367 35 119 128 426 195 645 58 189 337 1108 345 1140
34 122 45 155 53 155 5 0 126 -78 270 -173z m3090 -232 c19 -47 122 -315 352
-915 91 -239 170 -444 175 -455 11 -22 255 -656 299 -775 16 -41 38 -100 50
-130 20 -49 21 -53 4 -39 -14 12 -532 438 -606 499 -10 8 -28 23 -40 34 -21
17 -164 135 -377 311 -216 178 -479 395 -492 407 -7 7 -47 40 -88 73 -125 99
-123 76 -23 196 48 57 130 154 183 215 52 61 113 133 135 159 42 51 159 189
204 240 14 17 46 55 71 85 25 30 59 70 75 88 17 19 34 41 39 49 10 18 17 10
39 -42z m-3903 -262 c-4 -16 -19 -66 -33 -113 -14 -47 -51 -168 -82 -270 -31
-102 -63 -205 -70 -230 -12 -44 -135 -451 -275 -910 -40 -129 -73 -239 -74
-245 -9 -39 -31 -101 -37 -109 -4 -4 -142 47 -307 114 l-300 123 41 59 c23 33
49 69 57 81 41 59 250 353 257 362 5 6 66 91 136 190 222 315 495 700 504 710
5 6 49 67 98 138 49 70 90 127 91 127 2 0 -1 -12 -6 -27z m2646 -985 c-8 -78
-16 -152 -21 -198 -3 -19 -12 -102 -20 -185 -9 -82 -18 -163 -20 -180 -4 -28
-9 -70 -21 -185 -2 -25 -15 -148 -29 -275 -14 -126 -28 -252 -31 -280 -2 -27
-7 -66 -9 -85 -4 -33 -6 -54 -20 -185 -3 -27 -7 -66 -10 -85 -2 -19 -7 -64
-10 -100 -8 -82 -14 -135 -20 -180 -2 -19 -7 -64 -10 -100 -4 -36 -8 -76 -10
-90 -2 -14 -7 -54 -10 -90 -7 -77 -14 -142 -20 -190 -7 -58 -15 -132 -20 -180
-2 -25 -7 -65 -10 -90 -2 -25 -7 -65 -9 -90 -3 -25 -8 -72 -12 -105 -3 -33 -7
-69 -8 -80 -3 -28 -15 -23 -103 43 -43 32 -233 173 -423 312 -190 140 -349
258 -355 263 -9 7 -103 77 -690 509 -272 201 -493 364 -522 386 -12 9 -101 75
-197 147 -97 71 -173 132 -168 136 4 4 97 46 207 94 110 48 223 98 252 111 28
13 54 24 57 24 3 0 33 13 68 30 35 16 122 55 193 85 255 111 431 187 473 206
23 10 61 28 85 38 23 11 137 60 252 111 116 51 228 100 250 110 22 10 74 32
115 50 41 18 98 43 125 55 28 13 93 41 145 63 52 23 196 86 320 141 124 55
229 100 233 100 5 1 6 -27 3 -61z m410 -55 c27 -22 117 -97 199 -165 83 -68
229 -189 325 -269 96 -80 344 -284 550 -454 206 -170 384 -317 395 -326 11
-10 90 -75 175 -145 176 -146 195 -162 189 -167 -2 -2 -78 -49 -169 -105 -91
-56 -170 -106 -177 -112 -7 -5 -14 -10 -16 -10 -4 0 -118 -70 -737 -455 -782
-486 -1123 -696 -1133 -698 -7 -1 -11 3 -10 8 0 6 4 35 8 65 3 30 8 71 10 90
2 19 7 64 10 100 4 36 9 79 11 95 2 17 6 57 9 90 4 33 8 71 10 85 2 14 6 59
10 100 3 41 8 82 10 90 2 8 7 53 10 100 4 47 8 87 10 90 1 3 6 41 10 84 4 43
8 86 10 96 2 9 6 50 9 91 4 41 9 85 11 99 4 26 11 84 20 185 4 33 8 71 10 85
2 14 6 54 10 90 3 36 8 81 10 100 2 19 7 60 10 90 3 30 7 71 10 90 2 19 7 62
10 95 6 63 13 129 20 180 2 17 7 62 10 100 3 39 8 81 10 95 2 14 7 57 10 95 4
39 8 77 10 85 3 8 7 51 10 95 3 44 8 87 10 95 3 13 8 52 20 170 2 14 3 29 4
33 1 10 21 -4 87 -60z m-4031 -1028 c22 -9 54 -23 70 -30 17 -7 83 -35 149
-61 65 -26 124 -54 132 -62 8 -7 14 -30 15 -50 0 -20 2 -46 4 -57 1 -11 5 -56
9 -100 4 -44 9 -93 11 -110 5 -37 13 -120 20 -200 3 -33 13 -123 21 -200 20
-189 24 -232 29 -290 2 -27 6 -70 9 -95 5 -42 18 -169 31 -315 3 -33 8 -69 12
-80 11 -39 -15 -1 -31 45 -8 25 -72 191 -141 370 -69 179 -184 476 -255 660
-71 184 -156 403 -188 486 l-58 152 60 -23 c34 -13 79 -31 101 -40z m822 -470
c6 -5 49 -38 95 -71 400 -294 634 -466 693 -511 39 -29 88 -65 110 -81 41 -30
130 -96 700 -516 176 -130 391 -289 478 -352 87 -64 155 -119 152 -122 -3 -3
-11 -7 -18 -8 -7 -1 -151 -37 -322 -79 -487 -120 -818 -201 -1105 -271 -146
-36 -347 -85 -447 -110 -213 -53 -234 -57 -231 -47 2 8 -11 158 -17 203 -4 30
-14 125 -20 195 -4 46 -10 111 -20 190 -2 17 -6 59 -9 95 -11 111 -27 263 -31
305 -2 22 -11 112 -20 200 -20 203 -25 252 -30 295 -2 19 -7 62 -10 95 -3 33
-7 80 -10 105 -3 25 -7 70 -10 100 -2 30 -7 73 -9 95 -3 22 -7 67 -11 100 -3
33 -7 80 -10 105 -2 25 -7 74 -11 109 l-6 64 54 -39 c29 -21 58 -43 65 -49z
m4717 -617 c-4 -7 -28 -42 -54 -78 -26 -36 -181 -254 -345 -485 -164 -231
-376 -528 -470 -660 -93 -132 -224 -316 -290 -408 l-119 -168 -41 43 c-22 24
-94 104 -160 178 -66 74 -122 137 -125 140 -3 3 -46 50 -95 105 -50 55 -107
118 -127 140 -29 31 -35 43 -25 52 7 6 145 93 307 194 162 100 318 196 345
214 28 17 75 46 105 65 30 18 84 52 120 74 36 23 75 46 85 53 11 6 76 47 145
90 69 43 133 82 143 88 18 10 435 269 542 337 67 42 69 43 59 26z m-2137
-1322 c18 -22 135 -154 193 -217 14 -15 48 -53 76 -85 28 -33 69 -78 90 -100
83 -89 136 -152 119 -142 -5 3 -53 9 -105 13 -52 4 -113 9 -135 11 -22 1 -67
5 -100 9 -78 7 -142 13 -235 20 -41 3 -93 7 -115 9 -22 3 -74 7 -115 10 -41 4
-93 9 -115 11 -22 2 -71 7 -110 10 -140 11 -201 16 -240 20 -22 2 -83 7 -135
10 -52 4 -106 8 -120 11 -14 2 -65 6 -115 9 -49 4 -100 8 -111 10 -18 3 -75 8
-224 20 -14 1 -47 3 -75 4 l-50 3 45 14 c25 8 54 16 65 18 20 4 254 62 945
233 190 46 355 87 367 89 13 2 46 11 75 19 78 20 104 19 125 -9z"/>
</g>
</svg>
