<?xml version="1.0" encoding="utf-8"?>
<!-- Generator: Adobe Illustrator 23.0.0, SVG Export Plug-In . SVG Version: 6.00 Build 0)  -->
<svg version="1.1" id="Layer_1" xmlns="http://www.w3.org/2000/svg" xmlns:xlink="http://www.w3.org/1999/xlink" x="0px" y="0px"
	 viewBox="0 0 800 800" style="enable-background:new 0 0 800 800;" xml:space="preserve">
<style type="text/css">
	.st0{fill-rule:evenodd;clip-rule:evenodd;fill:#60909A;}
	.st1{fill-rule:evenodd;clip-rule:evenodd;fill:url(#SVGID_1_);}
	.st2{fill-rule:evenodd;clip-rule:evenodd;fill:#2ED566;}
	.st3{fill-rule:evenodd;clip-rule:evenodd;}
	.st4{fill:#FFFFFF;}
	.st5{fill-rule:evenodd;clip-rule:evenodd;fill:#FFFFFF;}
	.st6{fill:#FFFFFE;}
</style>
<linearGradient id="SVGID_1_" gradientUnits="userSpaceOnUse" x1="400" y1="800" x2="400" y2="-9.094947e-13">
	<stop  offset="0" style="stop-color:#F72841"/>
	<stop  offset="1" style="stop-color:#F85E76"/>
</linearGradient>
<circle class="st1" cx="400" cy="400" r="400"/>
<path class="st4" d="M535.1,350.1c0,46.3,0,92.7,0,139c0,10.1-1.4,20.1-5.9,29.3c-7,14.4-18.5,23.4-33.8,27.7
	c-8.5,2.4-17.2,3.8-26,4.2c-23.2,1.1-43.2-14.6-47.3-37.4c-3.4-18.8,5.6-39.5,25.3-49.2c7.9-3.9,16.3-6.1,24.8-7.9
	c9.2-2,18.4-3.7,27.6-5.8c6.7-1.5,11.1-5.6,12.4-12.6c0.3-1.5,0.4-3.1,0.4-4.7c0-44.2,0-88.3,0-132.4c0-1.5-0.2-3-0.6-4.5
	c-1-3.7-3.6-5.9-7.4-5.7c-3.9,0.2-7.7,0.8-11.6,1.6c-18.5,3.6-37,7.4-55.4,11.1c-18.9,3.8-37.7,7.6-56.6,11.4
	c-11.1,2.3-22.3,4.5-33.4,6.8c-0.4,0.1-0.8,0.2-1.2,0.3c-6.7,1.9-9.2,4.9-9.5,11.9c0,1.1,0,2.1,0,3.2c0,63.3,0,126.6,0,189.9
	c0,10.2-1.1,20.3-5.2,29.8c-6.8,15.6-18.7,25.3-34.9,30c-8.5,2.5-17.3,3.9-26.2,4.2c-23.3,0.9-42.7-14.6-46.7-37.6
	c-3.5-19.8,5.6-41,28-50.5c8.7-3.6,17.8-5.7,26.9-7.6c7-1.5,14-2.8,20.9-4.3c9.3-2,14.2-7.9,14.6-17.4c0-1.2,0-2.4,0-3.7
	c0-72,0-144,0-216.1c0-3,0.3-6.1,1-9c1.7-6.9,6.6-10.9,13.3-12.6c6.2-1.6,12.5-2.7,18.8-4c17.8-3.6,35.7-7.2,53.5-10.8
	c18.4-3.7,36.8-7.4,55.3-11.2c16.3-3.3,32.6-6.6,48.9-9.8c5.3-1.1,10.8-2.1,16.2-2.6c7.5-0.6,12.7,4.1,13.5,11.7
	c0.2,1.8,0.3,3.6,0.3,5.4C535.1,257.1,535.1,303.6,535.1,350.1L535.1,350.1z"/>
</svg>
