<svg enable-background="new 0 0 346.1 346.1" viewBox="0 0 346.1 346.1" xmlns="http://www.w3.org/2000/svg"><path d="m334.6 194.7c0-.1 0-.1 0-.2s0-.2 0-.3 0-.1 0-.2v-.1c0-.1 0-.2 0-.3s0-.2 0-.2v-.1c0-.1 0-.1 0-.2s-.1-.2-.1-.3-.1-.2-.1-.2v-.1l-58.8-151.6s0-.1-.1-.1c0-.1-.1-.2-.1-.3s-.1-.1-.1-.2c0 0 0 0 0-.1 0-.1-.1-.1-.1-.2s-.1-.1-.1-.2c0 0-.1-.1-.1-.1 0-.1-.1-.1-.1-.2s-.1-.1-.1-.2c0 0-.1-.1-.1-.1 0-.1-.1-.1-.1-.2-.1-.1-.2-.2-.2-.3-.1-.1-.1-.1-.2-.2s-.2-.2-.2-.2c-.1-.1-.1-.1-.2-.2-.1 0-.1-.1-.2-.1 0 0 0 0-.1 0-.1-.1-.2-.1-.3-.2-.1 0-.1-.1-.2-.1h-.1c-.1 0-.2-.1-.3-.1s-.1-.1-.2-.1h-.1c-.1 0-.2-.1-.3-.1-.1 0-.1 0-.2-.1h-.1c-.1 0-.2 0-.2-.1-.1 0-.1 0-.2-.1h-.1c-.1 0-.1 0-.2 0s-.2 0-.3 0h-.1s0 0-.1 0l-165-14h-.1c-.2 0-.5 0-.7 0h-.1c-.2 0-.5 0-.7.1-.5.1-1 .2-1.4.4 0 0 0 0-.1 0-.2.1-.4.2-.6.3 0 0 0 0-.1 0-.3.2-.6.4-.8.6-.1.1-.1.1-.2.2 0 0-.1.1-.1.1s-.1.1-.1.1c-.1.1-.1.1-.2.2 0 0-.1.1-.1.1s-.1.1-.1.1 0 0-.1.1l-88.5 124.5c-.2.4-.5.7-.6 1.1v.1c0 .1 0 .1-.1.2s-.1.3-.1.5c0 .1 0 .1-.1.2 0 .2-.1.3-.1.5v.2.6.1.7.1c0 .2.1.4.1.5s0 .1.1.2c0 .2.1.3.1.5v.1l58.7 151.7v.1c0 .1 0 .1.1.2 0 .1.1.2.1.2s0 .1.1.1c0 .1.1.1.1.2 0 0 .1.1.1.1s0 .1.1.1c0 0 .1.1.1.1.1.1.1.2.2.2 0 0 .1.1.1.1s.1.1.1.1l.2.2s.1.1.1.1c.1.1.1.1.2.2 0 0 .1.1.1.1s0 0 .1.1.2.1.2.2c0 0 .1 0 .1.1.1 0 .1.1.2.1 0 0 .1 0 .1.1 0 0 .1.1.1.1s.1 0 .1.1c.1 0 .1.1.2.1.1 0 .1.1.2.1 0 0 .1 0 .1.1.1 0 .2.1.3.1h.1.1s.1 0 .1.1h.1.1c.2.1.4.1.6.1h.1.1.2.2l165.1 14h.5c.3 0 .6 0 .9-.1h.2c.3-.1.6-.1.9-.2h.1c.3-.1.5-.2.8-.4.1 0 .1-.1.2-.1.3-.2.5-.4.8-.6.1-.1.3-.2.4-.4.2-.2.3-.3.4-.5l88.6-124.3s0-.1.1-.1c0-.1.1-.1.1-.2.1-.1.1-.2.2-.3 0 0 0 0 0-.1s.1-.1.1-.2.1-.2.1-.2c0-.1.1-.1.1-.2v-.1c0-.1.1-.1.1-.2s.1-.2.1-.3v-.1-.1c0-.1 0-.2.1-.3 0-.1 0-.1 0-.2v-.1c0-.1 0-.2 0-.3.1-.1.1-.2.1-.4zm-95.1 114.9-30.5-33.9 97.8-60.5zm-168.5-148.2 37.4-123.2 97.7 64.5zm140.4-48.1-16.3 150.2-121.8-90.2zm-25.2 158.3-106.1 26-11.3-112.9zm36.9-156.3 95.5 78.7-111.6 69zm3.7-12.3 41.3-48.7 46.9 121.5zm-9.5-7-89.7-59.2 130.5 11.1zm-159.5 68-32.4-13.4 63.4-88.9zm-1.7 12.1 8.7 86-37.9-98zm141.7 104.9 27.8 30.9-114.3-9.7z" fill="#fff"/></svg>