<?xml version="1.0" encoding="utf-8"?>
<!-- Generator: Adobe Illustrator 23.0.0, SVG Export Plug-In . SVG Version: 6.00 Build 0)  -->
<svg version="1.1" id="Layer_1" xmlns="http://www.w3.org/2000/svg" xmlns:xlink="http://www.w3.org/1999/xlink" x="0px" y="0px"
	 viewBox="0 0 800 313.8" style="enable-background:new 0 0 800 313.8;" xml:space="preserve">
<style type="text/css">
	.st0{fill:#FFFFFF;}
</style>
<path class="st0" d="M328.6,177.6c0-0.1,0-0.1,0-0.2c0-0.1,0-0.2,0-0.3c0-0.1,0-0.1,0-0.2c0,0,0-0.1,0-0.1c0-0.1,0-0.2,0-0.3
	c0-0.1,0-0.2,0-0.2c0,0,0-0.1,0-0.1c0,0,0,0,0,0c0-0.1,0-0.1,0-0.2c0-0.1-0.1-0.2-0.1-0.3c0-0.1-0.1-0.2-0.1-0.2c0,0,0,0,0,0l0-0.1
	c0,0,0,0,0,0L269.5,23.8c0,0,0-0.1-0.1-0.1c0-0.1-0.1-0.2-0.1-0.3c0-0.1-0.1-0.1-0.1-0.2c0,0,0,0,0-0.1c0,0,0,0,0,0
	c0-0.1-0.1-0.1-0.1-0.2c0-0.1-0.1-0.1-0.1-0.2c0,0-0.1-0.1-0.1-0.1c0-0.1-0.1-0.1-0.1-0.2c0-0.1-0.1-0.1-0.1-0.2
	c0,0-0.1-0.1-0.1-0.1c0-0.1-0.1-0.1-0.1-0.2c-0.1-0.1-0.2-0.2-0.2-0.3c-0.1-0.1-0.1-0.1-0.2-0.2c-0.1-0.1-0.2-0.2-0.2-0.2
	c-0.1-0.1-0.1-0.1-0.2-0.2c-0.1,0-0.1-0.1-0.2-0.1c0,0,0,0-0.1,0c-0.1-0.1-0.2-0.1-0.3-0.2c-0.1,0-0.1-0.1-0.2-0.1c0,0-0.1,0-0.1,0
	c-0.1,0-0.2-0.1-0.3-0.1c-0.1,0-0.1-0.1-0.2-0.1c0,0-0.1,0-0.1,0c-0.1,0-0.2-0.1-0.3-0.1c0,0,0,0,0,0c-0.1,0-0.1,0-0.2-0.1
	c0,0-0.1,0-0.1,0c-0.1,0-0.2,0-0.2-0.1c-0.1,0-0.1,0-0.2-0.1c0,0-0.1,0-0.1,0c-0.1,0-0.1,0-0.2,0c-0.1,0-0.2,0-0.3,0
	c0,0-0.1,0-0.1,0c0,0,0,0-0.1,0L99.5,6c0,0,0,0,0,0c0,0-0.1,0-0.1,0c-0.2,0-0.5,0-0.7,0c0,0-0.1,0-0.1,0c-0.2,0-0.5,0-0.7,0.1
	c0,0,0,0,0,0c-0.5,0.1-1,0.2-1.4,0.4c0,0,0,0-0.1,0c-0.2,0.1-0.4,0.2-0.6,0.3c0,0,0,0-0.1,0c-0.3,0.2-0.6,0.4-0.8,0.6
	c-0.1,0.1-0.1,0.1-0.2,0.2c0,0-0.1,0.1-0.1,0.1c0,0-0.1,0.1-0.1,0.1c-0.1,0.1-0.1,0.1-0.2,0.2c0,0-0.1,0.1-0.1,0.1
	c0,0-0.1,0.1-0.1,0.1c0,0,0,0-0.1,0.1L5.5,132.8c0,0,0,0,0,0c-0.2,0.4-0.5,0.7-0.6,1.1c0,0,0,0,0,0.1c0,0.1,0,0.1-0.1,0.2
	c-0.1,0.1-0.1,0.3-0.1,0.5c0,0.1,0,0.1-0.1,0.2c0,0.2-0.1,0.3-0.1,0.5c0,0.1,0,0.1,0,0.2c0,0.2,0,0.4,0,0.6c0,0,0,0.1,0,0.1
	c0,0.2,0,0.5,0,0.7c0,0,0,0.1,0,0.1c0,0.2,0.1,0.4,0.1,0.5c0,0.1,0,0.1,0.1,0.2c0,0.2,0.1,0.3,0.1,0.5c0,0,0,0.1,0,0.1L63.4,290
	c0,0,0,0,0,0.1c0,0.1,0,0.1,0.1,0.2c0,0,0,0,0,0c0,0.1,0.1,0.2,0.1,0.2c0,0,0,0.1,0.1,0.1c0,0.1,0.1,0.1,0.1,0.2
	c0,0,0.1,0.1,0.1,0.1c0,0,0,0.1,0.1,0.1c0,0,0.1,0.1,0.1,0.1c0.1,0.1,0.1,0.2,0.2,0.2c0,0,0.1,0.1,0.1,0.1c0,0,0.1,0.1,0.1,0.1
	c0.1,0.1,0.1,0.1,0.2,0.2c0,0,0.1,0.1,0.1,0.1c0.1,0.1,0.1,0.1,0.2,0.2c0,0,0.1,0.1,0.1,0.1c0,0,0,0,0.1,0.1
	c0.1,0.1,0.2,0.1,0.2,0.2c0,0,0.1,0,0.1,0.1c0.1,0,0.1,0.1,0.2,0.1c0,0,0.1,0,0.1,0.1c0,0,0.1,0.1,0.1,0.1c0,0,0.1,0,0.1,0.1
	c0.1,0,0.1,0.1,0.2,0.1c0,0,0,0,0,0c0.1,0,0.1,0.1,0.2,0.1c0,0,0.1,0,0.1,0.1c0.1,0,0.2,0.1,0.3,0.1c0,0,0.1,0,0.1,0
	c0,0,0.1,0,0.1,0c0,0,0.1,0,0.1,0.1c0,0,0,0,0.1,0c0,0,0,0,0.1,0c0.2,0.1,0.4,0.1,0.6,0.1c0,0,0,0,0,0c0,0,0,0,0.1,0
	c0,0,0.1,0,0.1,0c0.1,0,0.1,0,0.2,0c0.1,0,0.2,0,0.2,0l165.1,14c0.2,0,0.3,0,0.5,0c0,0,0,0,0,0c0,0,0,0,0,0c0,0,0,0,0,0
	c0.3,0,0.6,0,0.9-0.1c0.1,0,0.2,0,0.2,0c0.3-0.1,0.6-0.1,0.9-0.2c0,0,0.1,0,0.1,0c0.3-0.1,0.5-0.2,0.8-0.4c0.1,0,0.1-0.1,0.2-0.1
	c0.3-0.2,0.5-0.4,0.8-0.6c0,0,0,0,0,0c0.1-0.1,0.3-0.2,0.4-0.4c0,0,0,0,0,0c0.2-0.2,0.3-0.3,0.4-0.5c0,0,0,0,0,0L327.4,181
	c0,0,0-0.1,0.1-0.1c0-0.1,0.1-0.1,0.1-0.2c0.1-0.1,0.1-0.2,0.2-0.3c0,0,0,0,0-0.1c0-0.1,0.1-0.1,0.1-0.2c0-0.1,0.1-0.2,0.1-0.2
	c0-0.1,0.1-0.1,0.1-0.2c0,0,0-0.1,0-0.1c0,0,0,0,0,0c0-0.1,0.1-0.1,0.1-0.2c0-0.1,0.1-0.2,0.1-0.3c0,0,0-0.1,0-0.1c0,0,0-0.1,0-0.1
	c0-0.1,0-0.2,0.1-0.3c0-0.1,0-0.1,0-0.2c0,0,0-0.1,0-0.1c0-0.1,0-0.2,0-0.3C328.5,177.9,328.5,177.8,328.6,177.6
	C328.5,177.7,328.5,177.7,328.6,177.6C328.5,177.7,328.6,177.6,328.6,177.6z M233.5,292.5l-30.5-33.9l97.8-60.5L233.5,292.5z
	 M64.9,144.4l37.4-123.2L200,85.7L64.9,144.4z M205.4,96.2L189,246.4L67.3,156.3L205.4,96.2z M180.2,254.6l-106.1,26L62.8,167.6
	L180.2,254.6z M217,98.3l95.5,78.7l-111.5,69L217,98.3z M220.7,86l41.3-48.7L309,158.7L220.7,86z M211.2,78.9l-89.7-59.2l130.5,11.1
	L211.2,78.9z M51.8,147l-32.4-13.4l63.4-88.9L51.8,147z M50,159l8.7,86l-37.9-98L50,159z M191.8,263.9l27.8,30.9l-114.3-9.7
	L191.8,263.9z"/>
<path class="st0" d="M454.7,134.3c-1.4,1.3-3,2.3-4.7,3c-1.7,0.7-3.7,1.1-6,1.1c-2.8,0-5-0.7-6.7-2.2c-1.7-1.4-2.5-3.7-2.5-6.9V95.5
	h21.9V84.8h-21.9V66.1l-13.6,3.8v14.9H409v10.7h12.2v36.2c0.1,4.3,1,7.8,2.7,10.5c1.7,2.7,4.1,4.6,7.1,5.8c3.1,1.2,6.4,1.8,10.1,1.8
	c3.5,0,6.6-0.5,9.5-1.5c2.8-1,5.2-2.3,7.2-4L454.7,134.3z"/>
<path class="st0" d="M490.3,149.7c-4.2,0-8-0.8-11.5-2.3c-3.5-1.5-6.3-4-8.5-7.4c-2.1-3.4-3.2-7.8-3.2-13.2v-42h13.6v38.6
	c0,5.8,1.2,9.7,3.7,11.9c2.5,2.2,5.9,3.2,10.3,3.2c2.1,0,4.2-0.4,6.2-1.1c2-0.7,3.8-1.9,5.4-3.4c1.6-1.6,2.9-3.6,3.8-6
	c0.9-2.5,1.3-5.3,1.3-8.7V84.8h13.6v63.7h-12l-0.6-10.3c-2.2,4-5.2,6.9-8.9,8.8C499.8,148.8,495.4,149.7,490.3,149.7z"/>
<path class="st0" d="M687.2,148.5V84.8h11.6l1.3,11.5c1.7-4.2,4.2-7.3,7.6-9.5c3.4-2.2,7.5-3.2,12.4-3.2c1.3,0,2.5,0.1,3.8,0.3
	c1.3,0.2,2.3,0.5,3.2,1l-1.9,12c-0.9-0.3-2-0.6-3.1-0.8c-1.1-0.2-2.7-0.3-4.6-0.3c-2.6,0-5.2,0.7-7.8,2.1c-2.5,1.4-4.6,3.5-6.3,6.3
	c-1.7,2.8-2.5,6.4-2.5,10.7v33.7H687.2z"/>
<g>
	<path class="st0" d="M587.7,86.1c-3.6-1.7-7.7-2.6-12.2-2.6c-3.5,0-6.8,0.6-9.9,1.7c-3.1,1.1-5.8,2.9-8,5.3
		c-1.4,1.6-2.7,3.4-3.7,5.4l-0.6-11.1h-12.1v63.7h13.6v-33.9c0-4.8,0.9-8.7,2.6-11.6c1.7-2.9,3.9-5,6.6-6.3c2.6-1.3,5.3-2,8.1-2
		c3.9,0,7.1,1.2,9.7,3.6c2.6,2.4,3.9,6.8,3.9,13.1v37h13.6v-41.3c0-5.3-1.1-9.8-3.2-13.2C594.1,90.5,591.3,87.9,587.7,86.1z"/>
	<path class="st0" d="M657.5,95.5c-1.4-2.9-3.4-5.4-6-7.5c-3.7-3-8.3-4.5-13.8-4.5c-5.3,0-10.1,1.3-14.5,3.9
		c-4.4,2.6-7.9,6.3-10.6,11.3c-2.6,4.9-3.9,10.9-3.9,18.1c0,6.9,1.2,12.8,3.7,17.7c2.5,4.9,5.8,8.7,10.1,11.3
		c4.3,2.6,9.1,3.9,14.3,3.9c3.7,0,7.2-0.7,10.5-2.2c3.3-1.5,6-3.6,8.2-6.4c1.1-1.4,2-2.9,2.7-4.6l0.7,11.9h12.1V56.2h-13.6V95.5z
		 M655.3,128.1c-1.4,3.4-3.5,6-6.1,7.9c-2.6,1.9-5.8,2.8-9.4,2.8c-5.5,0-9.8-2-12.9-5.9c-3.1-3.9-4.6-9.4-4.6-16.2
		c0-6.9,1.6-12.3,4.7-16.2c3.1-3.9,7.6-5.9,13.2-5.9c3.4,0,6.4,0.8,9,2.5c2.6,1.7,4.6,4.1,6,7.3c1.4,3.2,2.2,7,2.2,11.4
		C657.5,120.6,656.8,124.7,655.3,128.1z"/>
	<path class="st0" d="M791.2,139.3c-3.1,0-4.7-1.6-4.7-4.7v-28.4c0-5.2-1.1-9.4-3.4-12.7c-2.3-3.3-5.3-5.8-9.2-7.4
		c-3.9-1.7-8.4-2.5-13.5-2.5c-7.5,0-13.6,1.6-18.3,4.7c-4.7,3.1-7.9,7.3-9.5,12.5l11.5,4.8c1.3-4,3.3-6.9,6-8.7
		c2.7-1.8,6-2.7,9.8-2.7c4.1,0,7.3,1.2,9.6,3.5c2.3,2.3,3.5,5.6,3.5,9.9v2.4l-22.7,4.4c-5.7,1.1-10.1,3.2-13.2,6.2
		c-3.1,3.1-4.6,7-4.6,11.7c0,3.8,0.9,7,2.7,9.6c1.8,2.6,4.3,4.5,7.5,5.8c3.2,1.3,6.8,1.9,10.8,1.9c3.2,0,6.4-0.5,9.5-1.6
		c3.1-1.1,5.9-2.7,8.3-4.8c0.9-0.9,1.8-1.8,2.4-2.9c0.3,1.1,0.7,2.2,1.3,3.1c1.2,2,2.9,3.5,5.1,4.5c2.2,1,4.6,1.5,7.3,1.5
		c3,0,5.4-0.5,7.4-1.4l0.8-9.4C794.2,139.1,792.7,139.3,791.2,139.3z M771.6,131.5c-0.9,1.8-2.1,3.3-3.8,4.5c-1.6,1.1-3.4,2-5.4,2.5
		c-2,0.5-4.1,0.8-6.2,0.8c-3.1,0-5.5-0.7-7.3-2.1c-1.8-1.4-2.7-3.3-2.7-5.7c0-2.5,0.9-4.3,2.7-5.6c1.8-1.3,4.5-2.2,8-2.9l16-3.3v5.3
		C773,127.5,772.5,129.6,771.6,131.5z"/>
</g>
<path class="st0" d="M461.3,188.7V228c-1.4-2.9-3.4-5.4-6-7.5c-3.7-3-8.3-4.5-13.8-4.5c-5.3,0-10.1,1.3-14.5,3.9
	c-4.4,2.6-7.9,6.3-10.6,11.3c-2.6,4.9-3.9,10.9-3.9,18.1c0,6.9,1.2,12.8,3.7,17.7c2.5,4.9,5.8,8.7,10.1,11.3
	c4.3,2.6,9.1,3.9,14.3,3.9c3.7,0,7.2-0.7,10.5-2.2c3.3-1.5,6-3.6,8.2-6.4c1.1-1.4,2-2.9,2.7-4.6l0.7,11.9h12.1v-92.3H461.3z
	 M459.1,260.6c-1.4,3.4-3.5,6-6.1,7.9c-2.6,1.9-5.8,2.8-9.4,2.8c-5.5,0-9.8-2-12.9-5.9c-3.1-3.9-4.6-9.4-4.6-16.2
	c0-6.9,1.6-12.3,4.7-16.2c3.1-3.9,7.6-5.9,13.2-5.9c3.4,0,6.4,0.8,9,2.5c2.6,1.7,4.6,4.1,6,7.3c1.4,3.2,2.2,7,2.2,11.4
	C461.3,253.1,460.6,257.2,459.1,260.6z"/>
<path class="st0" d="M546,271.8c-3.1,0-4.7-1.6-4.7-4.7v-28.4c0-5.2-1.1-9.4-3.4-12.7c-2.3-3.3-5.3-5.8-9.2-7.4
	c-3.9-1.7-8.4-2.5-13.5-2.5c-7.5,0-13.6,1.6-18.3,4.7c-4.7,3.1-7.9,7.3-9.5,12.5l11.5,4.8c1.3-4,3.3-6.9,6-8.7
	c2.7-1.8,6-2.7,9.8-2.7c4.1,0,7.3,1.2,9.6,3.5c2.3,2.3,3.5,5.6,3.5,9.9v2.4l-22.7,4.4c-5.7,1.1-10.1,3.2-13.2,6.2
	c-3.1,3.1-4.6,7-4.6,11.7c0,3.8,0.9,7,2.7,9.6c1.8,2.6,4.3,4.5,7.5,5.8c3.2,1.3,6.8,1.9,10.8,1.9c3.2,0,6.4-0.5,9.5-1.6
	c3.1-1.1,5.9-2.7,8.3-4.8c0.9-0.9,1.8-1.8,2.4-2.9c0.3,1.1,0.7,2.2,1.3,3.1c1.2,2,2.9,3.5,5.1,4.5c2.2,1,4.6,1.5,7.3,1.5
	c3,0,5.4-0.5,7.4-1.4l0.8-9.4C549,271.6,547.5,271.8,546,271.8z M526.4,264c-0.9,1.8-2.1,3.3-3.8,4.5c-1.6,1.1-3.4,2-5.4,2.5
	c-2,0.5-4.1,0.8-6.2,0.8c-3.1,0-5.5-0.7-7.3-2.1c-1.8-1.4-2.7-3.3-2.7-5.7c0-2.5,0.9-4.3,2.7-5.6c1.8-1.3,4.5-2.2,8-2.9l16-3.3v5.3
	C527.8,260,527.3,262.2,526.4,264z"/>
<path class="st0" d="M637.4,217.3h14.8L630.8,281h-14.9l-16-47.2L584.7,281h-14.9l-21.3-63.7h14.6l14.5,50.3l15.8-50.3h13.6
	l15.8,50.3L637.4,217.3z"/>
<path class="st0" d="M717.7,226.5c-2.1-3.5-5-6.1-8.6-7.8c-3.6-1.7-7.7-2.6-12.2-2.6c-3.5,0-6.8,0.6-9.9,1.7c-3.1,1.1-5.8,2.9-8,5.3
	c-1.4,1.6-2.7,3.4-3.7,5.4l-0.6-11.1h-12.1V281h13.6v-33.9c0-4.8,0.9-8.7,2.6-11.6c1.7-2.9,3.9-5,6.6-6.3c2.6-1.3,5.3-2,8.1-2
	c3.9,0,7.1,1.2,9.7,3.6c2.6,2.4,3.9,6.8,3.9,13V281h13.6v-41.3C720.9,234.4,719.8,230,717.7,226.5z"/>
</svg>
