<?xml version="1.0" encoding="utf-8"?>
<!-- Generator: Adobe Illustrator 23.0.0, SVG Export Plug-In . SVG Version: 6.00 Build 0)  -->
<svg version="1.1" id="Layer_1" xmlns="http://www.w3.org/2000/svg" xmlns:xlink="http://www.w3.org/1999/xlink" x="0px" y="0px"
	 viewBox="0 0 800 801" style="enable-background:new 0 0 800 801;" xml:space="preserve">
<style type="text/css">
	.st0{fill-rule:evenodd;clip-rule:evenodd;fill:#60909A;}
	.st1{fill-rule:evenodd;clip-rule:evenodd;fill:url(#SVGID_1_);}
	.st2{fill-rule:evenodd;clip-rule:evenodd;fill:#2ED566;}
	.st3{fill-rule:evenodd;clip-rule:evenodd;}
	.st4{fill:#FFFFFF;}
	.st5{fill-rule:evenodd;clip-rule:evenodd;fill:#FFFFFF;}
	.st6{fill:#FFFFFE;}
</style>
<circle class="st2" cx="400" cy="401" r="400"/>
<g id="Spotify_Icon_RGB_White_1_">
	<path id="Fill-1_1_" class="st5" d="M600,363.9c-108.2-64.3-286.8-70.2-390.1-38.8c-16.6,5-34.1-4.3-39.2-20.9
		c-5-16.6,4.3-34.1,20.9-39.2c118.6-36,315.8-29.1,440.4,44.9c14.9,8.9,19.8,28.1,11,43C634.1,367.9,614.8,372.8,600,363.9z
		 M596.4,459.1c-7.6,12.3-23.7,16.2-36,8.6c-90.2-55.5-227.8-71.5-334.6-39.1c-13.8,4.2-28.5-3.6-32.7-17.4
		c-4.2-13.8,3.6-28.4,17.5-32.6c122-37,273.6-19.1,377.2,44.6C600.1,430.7,604,446.8,596.4,459.1z M555.3,550.6
		c-6,9.9-18.9,13-28.8,7c-78.9-48.2-178.1-59.1-295-32.4c-11.3,2.6-22.5-4.5-25.1-15.7c-2.6-11.3,4.5-22.5,15.7-25.1
		c127.9-29.2,237.6-16.7,326.1,37.4C558.2,527.8,561.4,540.7,555.3,550.6z"/>
</g>
</svg>
