<?xml version="1.0" encoding="utf-8"?>
<!-- Generator: Adobe Illustrator 23.0.0, SVG Export Plug-In . SVG Version: 6.00 Build 0)  -->
<svg version="1.1" id="Layer_1" xmlns="http://www.w3.org/2000/svg" xmlns:xlink="http://www.w3.org/1999/xlink" x="0px" y="0px"
	 viewBox="0 0 800 801" style="enable-background:new 0 0 800 801;" xml:space="preserve">
<style type="text/css">
	.st0{fill-rule:evenodd;clip-rule:evenodd;fill:#60909A;}
	.st1{fill-rule:evenodd;clip-rule:evenodd;fill:url(#SVGID_1_);}
	.st2{fill-rule:evenodd;clip-rule:evenodd;fill:#2ED566;}
	.st3{fill-rule:evenodd;clip-rule:evenodd;}
	.st4{fill:#FFFFFF;}
	.st5{fill-rule:evenodd;clip-rule:evenodd;fill:#FFFFFF;}
	.st6{fill:#FFFFFE;}
</style>
<circle class="st3" cx="400" cy="400" r="400"/>
<g id="Page-1">
	<g id="tidal">
		<path id="Shape" class="st6" d="M252.6,283.2h0.9c6.9,8,14.8,15,22.2,22.7l50.3,50.3v0.9c-24.4,24.3-48.6,48.7-73,73
			c-24.5-24.4-48.9-48.9-73.3-73.2c1.3-2.4,3.6-4,5.5-5.9C207.6,328.3,230.4,306,252.6,283.2z M399.5,283.2h0.9
			c0.7,1,1.4,1.9,2.3,2.8c23.6,23.3,46.8,47,70.6,70.3c-0.6,1.4-1.8,2.3-2.8,3.3c-23.6,23.5-47,47-70.6,70.5
			c-24.6-24.3-48.7-49-73.5-73.1C350.3,332.1,375.4,308,399.5,283.2z M546.4,283.2h0.9c4.6,5.5,9.9,10.1,14.8,15.3
			c18.4,18.4,36.8,36.8,55.2,55.2c0.9,1,2.4,1.9,2.7,3.4c-24.7,24-48.6,49-73.5,73l-70-70c-1.1-1.3-2.6-2.2-3.2-3.8
			c12.4-12.1,24.5-24.5,36.8-36.7C522.2,307.5,534.5,295.6,546.4,283.2z M327.4,502.4c24-24,48.2-48.1,72.2-72.2l1,0.5
			c24.1,24.3,48.3,48.5,72.7,72.5c-0.8,1.8-2.5,2.8-3.8,4.3c-17.5,17.4-35.1,35.1-52.6,52.5c-5.7,5.5-11.2,11.6-17,16.7
			c-8.3-7.5-15.9-15.9-24-23.7c-16.4-16.4-32.7-32.8-49.2-49.1C326.9,503.6,327.2,502.9,327.4,502.4z"/>
	</g>
</g>
</svg>
